/* XPM */
/* Drawn for the K Desktop Environment */
/* See http://www.kde.org */
static char*kljettool[]={
"32 32 12 1",
"# c #000000",
"a c #c0c0c0",
"b c #ffffff",
"f c #808080",
"h c #585858",
"e c #a0a0a4",
"d c #008000",
"i c #008080",
"g c #00c000",
"j c #00c0c0",
"c c #00ff00",
". c None",
"...................#............",
"..................#a##..........",
"..................#bba##........",
".................#abbbba##......",
".................#bbbbbbba##....",
"................#abbbbbbbbba##..",
"................#bbbbbbbbbbba#..",
".............###abbcdbbcddbba#..",
"...........##ea#bbbcdcddbbbb#...",
".........##ea##abbbcddcbbbba#...",
".......##eaa##ffabbcdbbbbbb#e#..",
".....##eaaeeaf##ffabbbbbbba#e#..",
"...##eaaeeaaeeaf##ffabbbbb#e#...",
".##eaaeeaacgaaeeaf##ffabba#e#...",
"#baaeeaacgaacgaaeeaf##ffa#e##...",
"#abbaaeeaacgaahhaaeeaf##f##ae##.",
"#aaabbaaeeaahhiihhaaeeaf##aaaff#",
"#aaaaabbaahhijjjjihhaaffaaaffff#",
"#eaaaaaabbaaffjjjjjihhaaaffffff#",
".##eaaaaaabbaaffjjffaaaffffffff#",
"..###eaaaaaabbaaffaaaffffffffff#",
"..#ef##eaaaaaabbaaaffffffffff##.",
"..#eeef##eaaaaaabbfffffffff###..",
"..#feeeef##eaaaaaafffffff##hh#..",
"...##feeeef##eaaaafffff##hhhh#..",
".....##feeeef##eaafff##hhhhhh#..",
".......##feeeef##ef##hhhhhh##...",
".........##feeeef##hhhhhh##.....",
"...........##feeeehhhhh##.......",
".............##feehhh##.........",
"...............##fh##...........",
".................##............."};

