/* XPM */
static char * large_kljettool_xpm[] = {
"48 48 146 2",
"  	c None",
". 	c #020204",
"+ 	c #B6B6B4",
"@ 	c #CECECC",
"# 	c #FEFEFC",
"$ 	c #FAFAFC",
"% 	c #BEBEBC",
"& 	c #F6F6F4",
"* 	c #DEDEDC",
"= 	c #C2C2C4",
"- 	c #F2F2F4",
"; 	c #EEEEEC",
"> 	c #EAEAEC",
", 	c #DADADC",
"' 	c #E2E2E4",
") 	c #262624",
"! 	c #969694",
"~ 	c #E6E6E4",
"{ 	c #CACACC",
"] 	c #A2A2A4",
"^ 	c #929294",
"/ 	c #A2FEA4",
"( 	c #96E294",
"_ 	c #D6FED4",
": 	c #96FA94",
"< 	c #96CA94",
"[ 	c #B6DAB4",
"} 	c #D6D6D4",
"| 	c #16FE14",
"1 	c #02BA04",
"2 	c #E6FEE4",
"3 	c #E6F6E4",
"4 	c #02FE04",
"5 	c #1A8E1C",
"6 	c #5AAE5C",
"7 	c #B2B2B4",
"8 	c #AEAEAC",
"9 	c #029604",
"0 	c #028204",
"a 	c #D2D2D4",
"b 	c #BABABC",
"c 	c #028604",
"d 	c #02A204",
"e 	c #4EDE4C",
"f 	c #C2E2C4",
"g 	c #C6C6C4",
"h 	c #72726C",
"i 	c #464644",
"j 	c #0E860C",
"k 	c #4AA64C",
"l 	c #02D204",
"m 	c #121214",
"n 	c #22FE24",
"o 	c #424244",
"p 	c #42423C",
"q 	c #2E2E2C",
"r 	c #6A6A6C",
"s 	c #9E9E9C",
"t 	c #3A3A3C",
"u 	c #6E6E6C",
"v 	c #868684",
"w 	c #82827C",
"x 	c #AAAAAC",
"y 	c #3E3E3C",
"z 	c #1E1E1C",
"A 	c #525254",
"B 	c #A6A6A4",
"C 	c #FFFFFF",
"D 	c #4A4A4C",
"E 	c #9A9A9C",
"F 	c #2A2A2C",
"G 	c #8E8E8C",
"H 	c #828284",
"I 	c #5E5E5C",
"J 	c #7A7A7C",
"K 	c #666664",
"L 	c #8A8A8C",
"M 	c #0E0E0C",
"N 	c #5A5A5C",
"O 	c #52524C",
"P 	c #161614",
"Q 	c #767674",
"R 	c #727274",
"S 	c #060604",
"T 	c #C0C0BE",
"U 	c #06E2C4",
"V 	c #0AD2BC",
"W 	c #565654",
"X 	c #6A6A64",
"Y 	c #C4C4C2",
"Z 	c #02FED4",
"` 	c #02EECC",
" .	c #06DEBC",
"..	c #0EBEAC",
"+.	c #12B2A4",
"@.	c #4E4E4C",
"#.	c #7E7E7C",
"$.	c #CBCBCA",
"%.	c #C9C9C7",
"&.	c #02FAD4",
"*.	c #06EAC4",
"=.	c #06DABC",
"-.	c #0ACAB4",
";.	c #0EBAAC",
">.	c #12AA9C",
",.	c #169A94",
"'.	c #1A8A8C",
").	c #7A7A74",
"!.	c #D1D1D0",
"~.	c #CFCFCE",
"{.	c #0AD6BC",
"].	c #0AC6AC",
"^.	c #0EB6A4",
"/.	c #12A69C",
"(.	c #169694",
"_.	c #1A8684",
":.	c #D6D6D6",
"<.	c #D4D4D3",
"[.	c #12A29C",
"}.	c #DDDDDC",
"|.	c #DADAD9",
"1.	c #E2E2E1",
"2.	c #DFDFDF",
"3.	c #E8E8E8",
"4.	c #E5E5E5",
"5.	c #363234",
"6.	c #ECECEC",
"7.	c #5A5A54",
"8.	c #3E3A3C",
"9.	c #3A3634",
"0.	c #5A5654",
"a.	c #423E3C",
"b.	c #5E5A5C",
"c.	c #524E4C",
"d.	c #4E4A4C",
"e.	c #56524C",
"f.	c #4E4A44",
"g.	c #5E5A54",
"h.	c #626264",
"i.	c #625E5C",
"j.	c #666264",
"k.	c #6E6A6C",
"l.	c #6A6664",
"m.	c #726E6C",
"n.	c #767274",
"o.	c #827E7C",
"                                                                                                ",
"                                                                                                ",
"                                                    . .                                         ",
"                                                    . + . .                                     ",
"                                                  . @ # $ % . . .                               ",
"                                                  . $ # $ & & * = . . .                         ",
"                                                . + & $ $ & & - ; ; > , . . .                   ",
"                                                . , & & & & - - - ; > > ' ' * . . )             ",
"                                              . ! & & & - - - ; ; > ~ > ~ ' * , = .             ",
"                                              . { ; - ; - - ; ; > > > ~ ' ' ' * ] .             ",
"                                            . ^ ; ; ; / ( > ; > _ : < < [ * * * .               ",
"                                      . .   . } > > ; | 1 > 2 3 4 1 5 5 6 * , , .               ",
"                                  . . + 7 . 8 ~ ~ > > | 1 > 4 9 0 5 ' * * * , a .               ",
"                              . . = b + 7 . ' ~ ~ ~ ~ | 1 c d 1 e f * ' * , , .                 ",
"                          . . { g = % 7 h i * ' ' ~ ' | 1 j k l : * * * , } } . .               ",
"                      . . a @ { g = % ] m { ' ' * ' ' n 1 l * * ' * , , , , , . .               ",
"                  . . , , } @ { g % % m o ^ g , * * * * * * * , * , , , } } . .                 ",
"              . . ~ ' * } a a { g = b + p q r s 7 , * * , * , * , , , } } a . .                 ",
"          . . ; > ~ ' * , > > { g = % + 7 8 t ) u ! + } } , } } } } a a a @ .                   ",
"      . . & - ; > ~ ' v w = % v v = % + 7 8 x ] y z A B g } } } } a } a 7 . .                   ",
"    . C C > & - > ' ' * } D D { g = > > 8 x B ] s E y F D E % a a @ @ b E . .                   ",
"    . ~ ' C C ; > ~ * , } a @ { v v = % v v B ] s ! G H t z I ! 8 % g s . t t . .               ",
"    . ' ' ' ~ C C > * , } a @ g = % D D 8 8 B ] s E G v J u t ) K E L M i N O D t P .           ",
"    . ' ' * * ' ' C C * } a { { = % + 7 7 x B N I ! G H H J Q R y ) S t N I I I N T % . .       ",
"    . ' ' * , , , , * C C , a g = % b 7 8 D D U V W W H w J Q R u I W N X r u g Y K u u u S     ",
"    . * * * * , , } } } , C C a = = + v D Z `  .V ..+.A @.J Q u u r R Q #.$.%.J Q R u r X .     ",
"    . * , , , } } } } } a a } C C g % 7 8 &.*.=.-.;.>.,.'.D D R ).#.L !.~.v #.Q Q u R r K .     ",
"      . . , , , } } a a a a @ a @ C C % + x B {.].^./.(._.).J H G :.<.E L H J J Q R u r r .     ",
"        . . . } a a a @ @ @ { { g { { C C + B s E +.[.H #.G E }.|.s E G H #.J Q Q R h r K .     ",
"        . s E . . a @ a @ { @ { { g = { { C C 8 s ^ G G s 1.2.] s ! G v H H #.J Q R u . .       ",
"        . 7 ] Q ).. . @ @ { { g g g = = = g g C C E s 3.4.8 B s E ! G L H #.J J Q . .           ",
"        . 5.5.s Q r Q . . { { { g g = = % % b = % 6.6.+ 8 B ] s E E ^ L H H #.M . .             ",
"      . . 7.] ~ ] s K u Q . . g = g % = % % b b b b + 8 B B ] s E ! ^ w H . . 8.9..             ",
"      . # 0.# # # ~ ] s Q u u . . = = % % % b b b + 8 8 x ] ] ] E G #.. . i a.y 5..             ",
"      . # & b.v # # # , s ! R r u M . % b b + + + 7 8 8 x B ] E G . . c.d.@.e.f.8..             ",
"      . $ & - ; b.v # # # { B ! u I I . . b b + 7 7 8 x x B ] m . W d.@.7.g.N O c..             ",
"      . & - ; ; > ' N L # # # % E #.h.h.r . . + + 7 7 8 x . m I c.O b.i.j.i.b.e.c..             ",
"        . . ; ~ ' ' * , b.v # # & ! L ).h.I I F . 7 8 . . 0.0.I K K k.l.j.i.0.A e..             ",
"            . . ' * , , } @ D v # # & #.#.r I N N M . r N K h m.n.m.k.K j.i.g.m .               ",
"                . . , a @ @ { = D L # # # u r h.h.u r K h Q Q ).h h X l.h.. .                   ",
"                    . . a { { = % b D v > ; # b.N ^ H J #.o.J J R h u . .                       ",
"                        . . = = % + + 7 D b.E f.f.! G v H H #.Q Q . .                           ",
"                            . . % + 7 8 x ] ^ 8.8.E G L v o.o.. .                               ",
"                                . . 7 8 x ! L 9.9.v G L H . .                                   ",
"                                    . . x G . . . H #.. .                                       ",
"                                        . .       . .                                           ",
"                                                                                                ",
"                                                                                                "};
