/* XPM */
/* Drawn  by Mark Donohoe and Nico Schirwing for the K Desktop Environment */
/* See http://www.kde.org */
static char*kljettool[]={
"16 16 12 1",
"# c #000000",
"d c #c0c0c0",
"a c #ffffff",
"f c #808080",
"h c #585858",
"e c #a0a0a4",
"c c #008000",
"j c #008080",
"g c #00c000",
"i c #00c0c0",
"b c #00ff00",
". c None",
".........##.....",
"........#aa##...",
"........#aaaa##.",
"......##ababca#.",
"....###dabcaa#..",
"..##defffaaaaf#.",
"##dedgdefffade#.",
"#adedgdhdefffd#.",
"#daadhiijhdddff#",
"##ddaadfidddfff#",
".###ddaaddffff#.",
".#ee##dddfff###.",
"..##ee##df##hh#.",
"....##ee##hh##..",
"......##eh##....",
"........##......"};

