/* XPM */
static char *magick[] = {
/* columns rows colors chars-per-pixel */
"32 32 15 1",
"  c #000000",
". c #595959",
"X c #0000be",
"o c #0000ff",
"O c #bebe00",
"+ c #ff8200",
"@ c #ffaa59",
"# c #808080",
"$ c #a0a0a4",
"% c #bebeff",
"& c #ffdfaa",
"* c #ffffbe",
"= c #c0c0c0",
"- c #ffffff",
"; c None",
/* pixels */
";;;;;;;;;;      ;;;;;;;;;;;;;;;;",
";;;;;;;;;;      ;;;;;;;;;;;;;;;;",
";;;;;;;;          ;;;;;;;;;;;;;;",
";;;;;;;; %%%  %%% ;;;;;;;;;;;;;;",
";        --------        ;;;;;;;",
" ******* %%%%%%%% O****** ;;;;;;",
" *-------        ==-----= ;;;;;;",
" *--------========------= ;;;;;;",
" *----------------------= ;;;;;;",
" *--------- ------------= ;;;;;;",
" *-%%%%%%% - %%%%%%%%%%-= ;;;;;;",
" *------- #=- ----------= ;;  ;;",
" *-------. #=- ---------= ; *& ;",
" *----- -=. ==- --------=  *&@+ ",
" *-%%% - % -===- %%%%%%-= *&@+ ;",
" *--- #=- -=# #=- ------ *&@+ ;;",
" *---. #===# . # .----- *&@+ ;;;",
" *---=. #== .=. .=---- *&@+ ;;;;",
" *-%%%#. #=- %###%%%% *&@+ ;;;;;",
" *-----=. #=- -=---- *&@+ ;;;;;;",
" *------=. # .----- *&@+  ;;;;;;",
" *-------=. .=---- *&@+ # ;;;;;;",
" *-%%%%%%%###%%%% *&@+ $# ;;;;;;",
" *---------=---- *&@+ $=# ;;;;;;",
" *------------- ==@+ $=== ;;;;;;",
" *------------- #== $==-= ;;;;;;",
" *-%%%%%%%%%%%%    Xo%%-= ;;;;;;",
" *-------------.#$$==---= ;;;;;;",
" *--------------====----= ;;;;;;",
" *----------------------= ;;;;;;",
" ======================== ;;;;;;",
";                        ;;;;;;;"
};
