/* XPM */
static char *mini-khexdit[] = {
/* width height num_colors chars_per_pixel */
"    14    14        3            1",
/* colors */
". c #ffffff",
"# c #ffffff",
"a c #0000ff",
/* pixels */
"#.##.##.##.##.",
".##.##.##.##.#",
"#.##.##.##.##.",
"##.##.##.##.##",
"##.aa.##.a#.##",
"#.#aa##.#a.##.",
".##aa#.##a##.#",
"##.aaaaaaa#.a#",
"###aa####a##aa",
"##.aa.##.a#.a#",
"#.#aa##.#a.#a.",
"#.#aa##.#a.#aa",
"##aaaa#aaaaa#a",
"##############"
};
SIMPLE  =                    T                                                  BITPIX  =                    8                                                  NAXIS   =                    2                                                  NAXIS1  =                   14                                                  NAXIS2  =                   14                                                  HISTORY Written by XV 3.10a                                                     END                                                                                                                                                                                                                                                                                                                                                                                                                                                                                                                                                                                                                                                                                                                                                                                                                                                                                                                                                                                                                                                                                                                                                                                                                                                                                                                                                                                                                                                                                                                                                                                                                                                                                                                                                                                                                                                                                                                                                                                                                                                                                                                                                                                                                                                                                                                                                                                                                                                                                             ÿÿÿÿÿÿÿÿÿÿÿÿÿÿÿÿ''''ÿ'''''ÿ'ÿÿÿ''ÿÿÿÿ'ÿÿ''ÿÿÿ''ÿÿÿÿ'ÿÿ'ÿÿÿÿ''ÿÿÿÿ'ÿÿ'ÿÿÿÿ''ÿÿÿÿ'ÿÿ''ÿÿÿ'''''''ÿÿ'ÿÿÿÿ''ÿÿÿÿ'ÿÿÿÿÿÿÿ''ÿÿÿÿ'ÿÿÿÿÿÿÿ''ÿÿÿÿ'ÿÿÿÿÿÿÿÿÿÿÿÿÿÿÿÿÿÿÿÿÿÿÿÿÿÿÿÿÿÿÿÿÿÿÿÿÿÿÿÿÿÿÿÿÿÿÿÿÿÿÿÿÿÿÿÿÿÿÿÿ
