/* XPM */
static char *kab[] = {
/* width height num_colors chars_per_pixel */
"    32    32        7            1",
/* colors */
". c #000000",
"# c #ff00ff",
"a c #ffffff",
"b c #bebebe",
"c c #b22222",
"d c #808080",
"e c #ff0000",
/* pixels */
"................................",
".#a#a#a#a#a#a#a#a#a#a#a#a#a#a#a.",
".b#a#a#a#a#a#a#a#a#a#a#a#a#a#ac.",
".#b#a#a#a#a#a#a#a#a#a#a#a#a#ac..",
".##bd#d#d#d#d#d#d#d#d#d#d#d#c.c.",
".####d#d#d#d#d#d#d#d#d#d#d#d.c..",
".##.##d#d#d#........ddd#d#d#c.c.",
".###..................dd#d#d.c..",
".#.######..............dd#d#c.c.",
".##.........ddd.cccc....dd#d.c..",
"..#####....ddd.caaacc....dd#c.c.",
".#.......dddb.ccaaa.c.c...dd.c..",
".####...ddba.cce.c.c.c.c...dc.c.",
".......ddbab.ccec.c.c.c.c....c..",
".##....ddaba.cce.c.c.c.c.d....c.",
".#.....ddbab.ccec.c.c.c.cd...c..",
".#......ddba.cccec.c.c.ec.....c.",
".#####d..ddbb.cccec.c.ec...d#c..",
".######d..dddd.ccceeeec..d###.c.",
".##c####d..dddd.cccccc..d###.c..",
".###d####d.............d####c.c.",
".##c#d#####d..........d####d.c..",
".###d#d###################d#c.c.",
".##c#d#dc###############cd#d.c..",
".###d#d#d#d#d#d#d#d#d#d#d#d#c.c.",
".##c#d#d#d#d#d#d#d#d#d#d#d#d.c..",
".###d#d#d#d#d#d#d#d#d#d#d#d#c.c.",
".##c#d#d#d#d#d#d#d#d#d#d#d#d.c..",
".##.c.c.c.c.c.c.c.c.c.c.c.c.c.c.",
".#.c.c.c.c.c.c.c.c.c.c.c.c.c.c..",
"..c.c.c.c.c.c.c.c.c.c.c.c.c.c.c.",
"................................"
};
