/* XPM */
/* Drawn for the K Desktop Environment */
/* See http://www.kde.org */
static char*kpm[]={
"32 32 13 1",
"c c #808080",
". c None",
"e c #000080",
"g c #00ff00",
"b c #c0c0c0",
"a c #a0a0a4",
"j c #00c000",
"# c #000000",
"k c #ffa858",
"h c #ffff00",
"f c #c0c000",
"d c #ffffff",
"i c #ff0000",
"......###.......................",
"....##aba##########.............",
"..##abbbbbaccaaaaac##...........",
".#abbbbbbbbbaccaaaaac##.........",
"#bddbbbbbbbbbbaccaaaaac##.......",
"#bbbddbbbbbbbbbbaccaaaaac##.....",
"#bcabbddbbbbbbbbbbaccaaaaac##...",
"#bcccabbddbbbbbbbbbbaccaaaaac##.",
"#bceeccabbddbbbbbbbbbbacccccccc#",
"#bceeeeccabbddbbbbbbaaacaaaaaac#",
"#bceeeeeeccabbddbbaaaaacaaaaaac#",
"#bceeeeeeeeccabbdaaaaaacaaaaaac#",
"#bceeeeeeeeeeccabaaaaaacaaaaaac#",
"#bceffeeeeeeeeedbaaaaaacaaaaaac#",
"#bceggeehheeiiedbaaaaaacaaaaaac#",
"#bcejjeeffeekkedbaaaaaacaaaaaac#",
"#bcejjeeggeehhedbaaaaaacaaaaaac#",
"#bcdeeeejjeeffedbaaaaaacaaaaaac#",
"#bbaddeejjeeggedbaaaaaacaaaaaac#",
"##abbaddeeeejjedbaaaaaacaaaaaac#",
"..##abbaddeejjedbaaaaaacaaaaac#.",
"....##abbaddeeedbaaaaaacaaac##..",
".....###abbaddedbaaaaaacac##....",
"....#bdd##abjjddbaaaaaac##......",
"....#bbbdd##gjbbbaaaac##cc#.....",
"....##abbbdd##abbaac##caac#.....",
"......##abbbdd##ac##caaaac#.....",
"........##abbbdd##caaaac##......",
"..........##abbbdaaaac##........",
"............##abbaac##..........",
"..............##ac##............",
"................##.............."};
