/* XPM */
/* Drawn for the K Desktop Environment */
/* See http://www.kde.org */
static char*kedit[]={
"32 32 17 1",
"n c #808080",
"e c #ff8000",
"a c #008000",
". c None",
"h c #004040",
"l c #000080",
"d c #ffffc0",
"j c #c0c0c0",
"g c #808000",
"o c #585858",
"b c #00c000",
"# c #000000",
"c c #ffa858",
"m c #0000ff",
"f c #004000",
"i c #404000",
"k c #ffffff",
"..................###...........",
"................##ab#...........",
"..............##baba#...........",
"............##aaaba#............",
"..........##aababab#............",
"........##aaaaaaaa#.........###.",
".......#aaaaaaaaba#........#cde#",
"......#aaaaaaaaaa#........#cdee#",
"......#aafaaaaaab#.......#cdeeg#",
".....#hiaaaaaaaa#.......#cdeeg#.",
".....#afafaaaaaa#......#cdeeg#..",
"....#hiafaafaaa#......#cdeeg#...",
"....#faiiafafaa#.....#cdeeg#....",
"...#hafaaiafaf###...#cdeeg#.....",
"...#iiaifafa##jjj###cdeeg#......",
"..#hiaiaff##jjjkkk#cdeeg#.......",
"..#iiiff##jjljjkk#cdeeg#........",
".#hiif##jjjlllkkk#ddeg###.......",
".#ff##jjjjjljlkmm#ndg#kkj##.....",
"#f##jjjjjjlljlmmm####kkkkkj##...",
"##jjjjjjjjljjmmkmmkkkkkkkkkkj##.",
"##oojjjjjlljkkkkkjkkkkkkkkjoo#..",
"#onnoojjjljjkkkkkjjkkkkkjoojj##.",
"##oonnoojjjkkkkkkjjjkkjoojjoo#..",
"##hhoonnoojkkkkkkjjjjoojjooaa##.",
"..##hhoonnoojkkkkjjoonjooaa##...",
"....##hhoonjoojkjoonnooaa##.....",
"......##hhoojjooonnooff##.......",
"........##haoojjjooff##.........",
"..........##aaoooff##...........",
"............##aaa##.............",
"..............###..............."};
