/* XPM */
static char *magick[] = {
/* columns rows colors chars-per-pixel */
"16 16 10 1",
"  c #000000",
". c #003c00",
"X c #595959",
"o c #0000ff",
"O c #808000",
"+ c #ffaa59",
"@ c #ffffbe",
"# c #c0c0c0",
"$ c #ffffff",
"% c None",
/* pixels */
"%%%%%%%%%%%%%%%%",
"%%%%%%%%%%%%%%%%",
"%%%%%%%%%%%%%% %",
"%%%%%%%%%%%%% + ",
"%%%%%%%%%%%% +O ",
"%%%%%%%%%%% +O %",
"%%%%%%  %% +O %%",
"%%%%  $$  +O %%%",
"%%  $$o$ @O %%%%",
" .$$$o$o   $  %%",
" XX$o$$oo$$$$X %",
" ##XX$$$$$$XX# %",
"%  ##XX$$XX##  %",
"%%%  ##XX##  %%%",
"%%%%%  ##  %%%%%",
"%%%%%%%  %%%%%%%"
};
