/* XPM */
static char * kpm_xpm[] = {
"32 32 3 1",
" 	c None",
".	c #000082070000",
"X	c #000000000000",
"                                ",
"                           ..   ",
"                       ......   ",
"                    .........   ",
"XXXXXXXXXXXXXXXXXXXXXXXXXXXXXXXX",
"                 ............   ",
"                .............   ",
"                .............   ",
"               ..............   ",
"              ...............   ",
"              ...............   ",
"              ...............   ",
"XXXXXXXXXXXXXXXXXXXXXXXXXXXXXXXX",
"             ................   ",
"            .................   ",
"            .................   ",
"           ..................   ",
"           ..................   ",
"          ...................   ",
"         ....................   ",
"         ....................   ",
"XXXXXXXXXXXXXXXXXXXXXXXXXXXXXXXX",
"       ......................   ",
"      .......................   ",
"     ........................   ",
"     ........................   ",
"    .........................   ",
"    .........................   ",
"   ..........................   ",
"  ...........................   ",
".............................   ",
"XXXXXXXXXXXXXXXXXXXXXXXXXXXXXXXX"};
