/* XPM */
static char * kpm_xpm[] = {
"48 48 248 2",
"  	c None",
". 	c #020204",
"+ 	c #262624",
"@ 	c #66666C",
"# 	c #6E6E74",
"$ 	c #5A7254",
"% 	c #0A325C",
"& 	c #060604",
"* 	c #222224",
"= 	c #666664",
"- 	c #6A6A6C",
"; 	c #726E6C",
"> 	c #767274",
", 	c #7A7A7C",
"' 	c #767674",
") 	c #525254",
"! 	c #5E5E64",
"~ 	c #5A5A5C",
"{ 	c #8E8A8C",
"] 	c #9A9694",
"^ 	c #AAAAAC",
"/ 	c #BABABC",
"( 	c #5A5E5C",
"_ 	c #626264",
": 	c #727274",
"< 	c #7A7674",
"[ 	c #7E7E7C",
"} 	c #7E827C",
"| 	c #8A8A8C",
"1 	c #76767C",
"2 	c #666264",
"3 	c #929294",
"4 	c #9EA29C",
"5 	c #AEAEAC",
"6 	c #C2C2C4",
"7 	c #5E5E5C",
"8 	c #828284",
"9 	c #8E8E94",
"0 	c #9A9E9C",
"a 	c #CECECC",
"b 	c #E6E6E4",
"c 	c #6E6E6C",
"d 	c #828684",
"e 	c #929694",
"f 	c #4E524C",
"g 	c #B6B6B4",
"h 	c #C6C2C4",
"i 	c #DAD6DC",
"j 	c #868684",
"k 	c #8A8684",
"l 	c #969694",
"m 	c #EAEAEC",
"n 	c #868284",
"o 	c #86868C",
"p 	c #8E8E8C",
"q 	c #9A9A9C",
"r 	c #9E9EA4",
"s 	c #A6A2A4",
"t 	c #AAA6AC",
"u 	c #A2A2A4",
"v 	c #B6B2B4",
"w 	c #C2BEBC",
"x 	c #D6D2D4",
"y 	c #E6E2E4",
"z 	c #928E8C",
"A 	c #9E9E9C",
"B 	c #EAE6E4",
"C 	c #B2B2B4",
"D 	c #9E9A9C",
"E 	c #B2AEAC",
"F 	c #BEBABC",
"G 	c #CACACC",
"H 	c #DEDEDC",
"I 	c #969294",
"J 	c #BEBEBC",
"K 	c #96969C",
"L 	c #DADADC",
"M 	c #E2E2E4",
"N 	c #0A2A4C",
"O 	c #82B2BC",
"P 	c #A6A6A4",
"Q 	c #C6C6C4",
"R 	c #D2D2D4",
"S 	c #5676E4",
"T 	c #D2CECC",
"U 	c #D6D6D4",
"V 	c #5272E4",
"W 	c #AAA6A4",
"X 	c #EEEEEC",
"Y 	c #4A6AE4",
"Z 	c #4E6EE4",
"` 	c #4662DC",
" .	c #526EE4",
"..	c #A6A6AC",
"+.	c #EEEAEC",
"@.	c #827E7C",
"#.	c #3E5ED4",
"$.	c #425EDC",
"%.	c #4666DC",
"&.	c #DEDADC",
"*.	c #3A56D4",
"=.	c #3E5AD4",
"-.	c #4A66DC",
";.	c #ADADAF",
">.	c #B2B2B3",
",.	c #BAB9BA",
"'.	c #2E46C4",
").	c #324ECC",
"!.	c #DABE14",
"~.	c #EA8E0C",
"{.	c #AE0E0C",
"].	c #C5C5C5",
"^.	c #C0C0C1",
"/.	c #BCBCBC",
"(.	c #2A46C4",
"_.	c #8A7A0C",
":.	c #B66E0C",
"<.	c #720A0C",
"[.	c #BEBEBF",
"}.	c #BABABA",
"|.	c #B5B5B6",
"1.	c #CAC6C4",
"2.	c #223EC4",
"3.	c #EAD214",
"4.	c #0E8A0C",
"5.	c #FE9A0C",
"6.	c #E20E0C",
"7.	c #B7B8B8",
"8.	c #B3B3B4",
"9.	c #AEAFAF",
"0.	c #1A2EB4",
"a.	c #12EE14",
"b.	c #0A5E0C",
"c.	c #263EC4",
"d.	c #B1B1B1",
"e.	c #ACADAD",
"f.	c #A8A8A8",
"g.	c #162EB4",
"h.	c #12A614",
"i.	c #1E36BC",
"j.	c #AAAAAB",
"k.	c #A6A6A6",
"l.	c #A1A1A2",
"m.	c #0E26AC",
"n.	c #122AB4",
"o.	c #A3A4A4",
"p.	c #9F9FA0",
"q.	c #9A9B9B",
"r.	c #E2DEE4",
"s.	c #9D9D9E",
"t.	c #989999",
"u.	c #949495",
"v.	c #A7A7A9",
"w.	c #B9B9BA",
"x.	c #C3C3C4",
"y.	c #C0C0C0",
"z.	c #314A65",
"A.	c #969697",
"B.	c #919292",
"C.	c #8D8E8E",
"D.	c #000000",
"E.	c #2E2E30",
"F.	c #BCBDBD",
"G.	c #C1C1C1",
"H.	c #BCBCBD",
"I.	c #2F4862",
"J.	c #8F9090",
"K.	c #8B8B8C",
"L.	c #868787",
"M.	c #2B2C2D",
"N.	c #B3B3B3",
"O.	c #B9B9B9",
"P.	c #B4B4B5",
"Q.	c #B0B0B0",
"R.	c #2C4560",
"S.	c #88898A",
"T.	c #848585",
"U.	c #808081",
"V.	c #29292B",
"W.	c #B2B2B1",
"X.	c #A8A8A9",
"Y.	c #A3A3A4",
"Z.	c #29425D",
"`.	c #828283",
" +	c #7D7E7F",
".+	c #797A7A",
"++	c #262628",
"@+	c #9FA0A1",
"#+	c #A0A0A1",
"$+	c #9B9C9C",
"%+	c #979798",
"&+	c #989899",
"*+	c #26405A",
"=+	c #7B7C7C",
"-+	c #777778",
";+	c #727374",
">+	c #232425",
",+	c #919092",
"'+	c #939495",
")+	c #8E8E8F",
"!+	c #243D58",
"~+	c #747576",
"{+	c #707171",
"]+	c #6B6C6D",
"^+	c #3E3E3C",
"/+	c #212122",
"(+	c #878789",
"_+	c #878888",
":+	c #838384",
"<+	c #7E7F80",
"[+	c #828384",
"}+	c #213A55",
"|+	c #6E6F6F",
"1+	c #696A6B",
"2+	c #656667",
"3+	c #1E1E20",
"4+	c #858586",
"5+	c #7B7B7C",
"6+	c #767778",
"7+	c #727373",
"8+	c #777779",
"9+	c #1E3852",
"0+	c #676869",
"a+	c #636364",
"b+	c #5E5F60",
"c+	c #5A5654",
"d+	c #1B1B1D",
"e+	c #717672",
"f+	c #0EEF0E",
"g+	c #606162",
"h+	c #5C5D5E",
"i+	c #575859",
"j+	c #19191A",
"k+	c #6E6E70",
"l+	c #626364",
"m+	c #5B5C5C",
"n+	c #555657",
"o+	c #515253",
"p+	c #161614",
"q+	c #161618",
"r+	c #586058",
"s+	c #4F4F50",
"t+	c #2A2A2C",
"u+	c #625E5C",
"v+	c #0A0A0C",
"w+	c #AEAAAC",
"x+	c #565254",
"y+	c #8E8684",
"                                                                                                ",
"                                                                                                ",
"                      . . .                                                                     ",
"                  . + @ # $ % & & . . & . . & & & & &                                           ",
"              & * = @ - ; > , ' ) ! ~ ! ~ - , { ] ^ / & &                                       ",
"          . * ! ( _ - # : < [ } | 1 ~ ~ ! ~ 2 : } 3 4 5 6 & &                                   ",
"      & * = ( 7 _ = - : ' , [ 8 | 9 3 } 7 ~ ( ( - , 9 0 ^ / a . .                               ",
"    . : 8 b ~ ! _ @ c : 1 , [ d | 9 e ] 0 9 f ~ ( - , d e ^ g h i & &                           ",
"    . j k l m m = - c ' , [ n o p 3 q q r s t | f ~ = ' } 3 u v w x y . .                       ",
"    . p p | z A m B : 1 [ 8 o | 9 3 l r u ^ 5 C C e f ~ # [ 9 D E F G H H & &                   ",
"    . 3 l 3 3 I 3 s m b [ 8 | p 3 q D 4 u ^ 5 C g / J q f @ 1 o K t g G L M M & &               ",
"    . q q q N O q q q P m m | p l l A s ^ ^ C g / 6 Q G G } f : n 3 4 C 6 R M H M & &           ",
"    . A s u N S O O s s u A m b q 0 4 u ^ 5 g / J 6 Q G T U T d f , | 0 5 / a L H M M .         ",
"    . 4 ^ ^ N V V V O O W ^ W 5 b b u ^ 5 C g / J 6 G a U L H R c [ [ } } d d d } [ [ [ .       ",
"    . A W 5 N S S V V V O O E E E g b b 5 C / J 6 Q a a R U R / c 8 9 r ^ g Q R M X X [ .       ",
"    . s ^ 5 % Y Z V S S V V O O g g C w b m / J Q G a U U / J U - 8 z q ^ g 6 a H m X 8 .       ",
"    . A ^ 5 N ` Y Y Y  .V S V S O O J J v F m b G G R / J G a G c } 9 q ..g 6 a H B +.@..       ",
"    . s P E N #.$.` %.Y Y Y V V V V O O g 5 W ^ b 6 / L R a G 6 - 8 | ] ..C 6 T &.m X 8 .       ",
"    . u ^ C N *.*.=.=.$.` ` -.Y  .Z V V O O ;.>.,.J H U R G 6 J c 8 | q s C J G L B +.@..       ",
"    . u P E N '.).!.!.*.=.~.~.-.` {.{. .Z Z ].^././ R a Q 6 J g - 8 | I u 5 F G i b X 8 .       ",
"    . u ^ C N (.!.!._.'.~.~.:.*.{.{.<.-.-.Z [.}.|.J R G 6 J g C - 8 o K u E F 1.x y +.@..       ",
"    . 4 P 5 N 2.3.3.4.(.5.5.:.).6.6.<.$.$.Y 7.8.9./ Q 6 J g C ^ c 8 d 3 u 5 F G i b X 8 .       ",
"    . u ^ C N 0.a.a.b.2.5.5._.c.6.6.:.=.*.$.d.e.f.J Q J g C ^ u - 8 8 3 u E F 1.x y +.[ &       ",
"    . 4 P 5 N g.h.h.b.i.3.3.4.2.5.5.:.).).=.j.k.l./ / g C ^ ..u - 8 8 9 r 5 / G U M X } .       ",
"    . u ^ 5 N m.h.h.n.n.a.a.b.i.5.5._.'.(.).o.p.q.J g C ^ P A q - 8 8 9 r ^ g Q R r.X [ .       ",
"    . u ..C % m.m.m.m.m.h.h.b.g.3.3.4.c.c.'.s.t.u./ C ^ P r q 3 c 8 @.| q ^ g 6 R H m } .       ",
"    . v.w.x.y.z.N m.m.m.h.h.m.n.a.a.b.2.i.c.A.B.C./ ^ ..A l e { - 8 8 | D t g h R &.+.} D.      ",
"    . E.F.].G.H.}.I.N m.m.m.m.m.h.h.b.n.0.i.J.K.L.J ..A q l { | - 8 8 o q ..v h R &.b } D.      ",
"        . M.N.O.P.Q.9.R.N m.m.m.h.h.m.m.n.0.S.T.U./ A q 3 9 j 8 c } 8 o q u C w G &.B } D.      ",
"            . V.W.e.X.o.Y.Z.N m.m.m.m.m.m.n.`. +.+J q 3 p j } , - 8 8 j 3 u 5 w a L D.D.        ",
"                . ++@+#+$+%+&+*+N m.m.m.m.m.=+-+;+/ 3 | | @.[ 1 - 8 } 8 z D ^ w D.D.            ",
"                    . >+,+'+J.K.)+!+N m.m.m.~+{+]+J p | [ [ : # - 8 8 8 9 0 . D.                ",
"                . . ^+^+. /+(+_+:+<+[+}+N m.|+1+2+/ o 8 , 1 c - - 8 8 8 D..                     ",
"              . L L ^+^+^+^+. 3+4+5+6+7+8+9+0+a+b+J 8 , 1 c - 2 - c+. . .                       ",
"              . R L L L ^+^+^+) . d+e+f+f+2+g+h+i+/ [ : : - _ ) . . < A A .                     ",
"              . g 6 G R L L ^+^+^+f . j+k+l+m+n+o+J : : @ = p+. ' A A I n .                     ",
"              . u ^ v / 6 G R L ^+^+^+^+. q+r+) s+J c : t+. } j s I 8 : u+.                     ",
"                . . ] s ^ v g 6 G R ^+^+^+^+. v+) / * . k D u z @.: u+) u+.                     ",
"                    . . 3 D s w+C g 6 G ^+^+^+^+. . A u u z 8 : 2 x+u+u+.                       ",
"                        . . k z D s W C g 6 ^+^+8 u s z @.> 2 ) ) ) . .                         ",
"                            . . k { z D 4 W E / [ 3 8 : _ ) x+) . .                             ",
"                                . . y+y+y+3 q A 8 ; _ x+) ) . .                                 ",
"                                    . . y+y+y+y+8 x+f ) . .                                     ",
"                                        . . { k [ ) . .                                         ",
"                                            . . . .                                             ",
"                                                                                                ",
"                                                                                                ",
"                                                                                                "};
