/* XPM */
/* Drawn for the K Desktop Environment */
/* See http://www.kde.org */
static char*kjots[]={
"32 32 11 1",
"# c #000000",
"h c #c0c0c0",
"g c #ffffff",
"d c #808080",
"e c #585858",
"f c #a0a0a4",
"i c #c0c0ff",
"b c #ffffc0",
"c c #ff8000",
"a c #ffdca8",
". c None",
".##.............................",
"#ab#............................",
"#cab#...........................",
".#cab#..........................",
"..#cab#.........................",
"...#cab#........................",
"....#cab#.......................",
".....#cab#......................",
"......#cab#.....##..............",
".......#cab#...#de##..##........",
"........#cab#.#d##de##ff##......",
".........#cab#d#gh##d#eefd#.....",
"..........#cab#ggggh###eef#.....",
"...........#cah#gggg########....",
"..........#d#hh#iggghh####de##..",
".........#d#g###ggigghhhhh##de##",
"........#d#ggggiiggiiggggggh#d#.",
".......#d#gggggggiigggggggg#d#..",
"......#d#gggggiigggigggggg#d#...",
".....#d#gggggggggigggiigg#d#....",
"....#d#gggggggiiggiigggg#d#.....",
"...#d#ggggggggggiiggggg#d#......",
"..#d#ggggggggggggggggg#d#.......",
".#d#hgggggggggggggggg#d#........",
"##ed##hggggggggggggg#d#.........",
"..##ed##hgggggggggg#d#..........",
"....##ed##hggggggg#d#...........",
"......##ed##hgggg#d#............",
"........##ed##hg#d#.............",
"..........##ed##d#..............",
"............##ed#...............",
"..............##................"};

