/* XPM */
static char * jots_xpm[] = {
/* width height num_colors chars_per_pixel */
"32 32 17 1",
/* colors */
" 	s None	c None",
".	c #dfdfdf",
"X	c #8a8a8a",
"o	c #aaaaaa",
"O	c white",
"+	c #757575",
"@	c #454545",
"#	c #efefef",
"$	c #ff309a",
"%	c #bababa",
"&	c #00aa00",
"*	c #00cf65",
"=	c #cf9a30",
"-	c #555555",
";	c #ffcf30",
":	c black",
">	c #9a6530",
/* pixels */
"                                ",
" .XoXooXoXooXoXooXoXooXoXooXo.O ",
" X+o+@@@@@@@@@@@@@@@@@@@@@+o+XO ",
" o+X+@@@@@@@@@@@@@@@@@@@@@+X+X# ",
" X+XoXXXoXXXoXXXoXXXoXXXoXXo+X# ",
" oX###O###O###O###O###O####.XX# ",
" oX.#######################.XX# ",
" XX################.$..####.XX# ",
" oX.##############%X$$$.####XX# ",
" oX##############%&+o$$%###.XX# ",
" XX#############%+&*@X$$O##.XX# ",
" oX############.==&&&-=#####XX# ",
" oX.##########%==;;&&&..###.XX# ",
" XX##########.===;;=-%#####.XX# ",
" oX#########%==;;;=X..######XX# ",
" oX.#######.===;;=X.#######.XX# ",
" XX#######%==;;;=X%########.XX# ",
" oX######.===;;=X%.#########XX# ",
" oX.####%==;;;=X%..########.XX# ",
" XX####.===;;=X%....#######.XX# ",
" oX###%==;;;=X%.....########XX# ",
" oX.##X@=;==X%......#######.XX# ",
" XX###+:@===o%%%.%.%.######.XX# ",
" oX###X@:@>oo%%%oooo%.#%XXoX+X# ",
" oX.##%X+X%%%%%%%.%...#o-+--+%# ",
" XX#####...#.#.......##X++++%## ",
" oX#############.######X-++%#   ",
" oX.....#....#..#..#.#.X-+%##   ",
" X+XXXXXXXXXXXXXXXXXXXX++%#     ",
" .XXXXXXXXXoXXXoXXXXXoXX%##     ",
" OOO##O##O###############       ",
"                 #####          "};
