/* XPM */
static char * large_kwrite_xpm[] = {
"44 44 176 2",
"  	c None",
". 	c #020204",
"+ 	c #924604",
"@ 	c #1A1A1C",
"# 	c #6A4A2C",
"$ 	c #CE7E2C",
"% 	c #C6721C",
"& 	c #FE8204",
"* 	c #FE9644",
"= 	c #FE8A24",
"- 	c #CA660C",
"; 	c #4E2604",
"> 	c #222224",
", 	c #5E5E5C",
"' 	c #8E8E8C",
") 	c #8A8A8C",
"! 	c #7E7A74",
"~ 	c #E67A14",
"{ 	c #DEAAA4",
"] 	c #F6B29C",
"^ 	c #FE9A4C",
"/ 	c #FE7E04",
"( 	c #DE6A04",
"_ 	c #2E1604",
": 	c #BEBEBC",
"< 	c #C2C2C4",
"[ 	c #CECECC",
"} 	c #EEEEEC",
"| 	c #868684",
"1 	c #CE761C",
"2 	c #FA7E04",
"3 	c #F27A04",
"4 	c #0E0604",
"5 	c #DADADC",
"6 	c #FEFEFC",
"7 	c #A2A2A4",
"8 	c #828284",
"9 	c #626264",
"0 	c #AA6E2C",
"a 	c #F67A04",
"b 	c #C25A04",
"c 	c #120604",
"d 	c #BABABC",
"e 	c #DEDEDC",
"f 	c #C6C6C4",
"g 	c #AAAAAC",
"h 	c #8E8A84",
"i 	c #8E663C",
"j 	c #C25E04",
"k 	c #1A0E04",
"l 	c #924A04",
"m 	c #C27234",
"n 	c #C67A34",
"o 	c #CA762C",
"p 	c #DACEC4",
"q 	c #B2B2B4",
"r 	c #8A623C",
"s 	c #CE6204",
"t 	c #A69204",
"u 	c #DEAA04",
"v 	c #E2822C",
"w 	c #D29664",
"x 	c #BE8A5C",
"y 	c #BA9A7C",
"z 	c #CACACC",
"A 	c #AEAEB4",
"B 	c #7E6A5C",
"C 	c #8A4204",
"D 	c #C25604",
"E 	c #BE5604",
"F 	c #120A04",
"G 	c #FEF2E4",
"H 	c #FEE6CC",
"I 	c #FED29C",
"J 	c #FEC694",
"K 	c #DA7A2C",
"L 	c #D26E1C",
"M 	c #D28A44",
"N 	c #D2BAA4",
"O 	c #9E9EA4",
"P 	c #96969C",
"Q 	c #BE3E04",
"R 	c #120204",
"S 	c #FEF2EC",
"T 	c #FEEEE4",
"U 	c #FED6B4",
"V 	c #FEA654",
"W 	c #FEA65C",
"X 	c #EA8E3C",
"Y 	c #D6CABC",
"Z 	c #6E6E6C",
"` 	c #363634",
" .	c #1A0A04",
"..	c #C24604",
"+.	c #BE0204",
"@.	c #FEE2BC",
"#.	c #FEAA4C",
"$.	c #FEAA5C",
"%.	c #F29A4C",
"&.	c #BE6214",
"*.	c #DAD6D4",
"=.	c #666664",
"-.	c #2A2A2C",
";.	c #1A0204",
">.	c #B60204",
",.	c #023E3C",
"'.	c #FAA254",
").	c #5E5654",
"!.	c #161614",
"~.	c #022A2C",
"{.	c #024244",
"].	c #F2A254",
"^.	c #020A0C",
"/.	c #262624",
"(.	c #060604",
"_.	c #727274",
":.	c #0A0204",
"<.	c #3E0204",
"[.	c #EE7604",
"}.	c #9A9A9C",
"|.	c #8E8E94",
"1.	c #2E2E2C",
"2.	c #022E2C",
"3.	c #020604",
"4.	c #3E3E3C",
"5.	c #FEAE64",
"6.	c #020E0C",
"7.	c #021214",
"8.	c #662E04",
"9.	c #FAD69C",
"0.	c #FEDEAC",
"a.	c #FEDAAC",
"b.	c #0E0E0C",
"c.	c #FEF6EC",
"d.	c #FEDAA4",
"e.	c #4A2204",
"f.	c #FEFAF4",
"g.	c #FECE8C",
"h.	c #FE860C",
"i.	c #E27204",
"j.	c #1E0E04",
"k.	c #FEBA64",
"l.	c #FE9224",
"m.	c #0A0604",
"n.	c #DA8E44",
"o.	c #FEEACC",
"p.	c #FE9E3C",
"q.	c #F6861C",
"r.	c #FED6A4",
"s.	c #E6A25C",
"t.	c #E28634",
"u.	c #1E1A14",
"v.	c #627274",
"w.	c #025E5C",
"x.	c #9A9284",
"y.	c #E6CA9C",
"z.	c #FEB26C",
"A.	c #DE7E2C",
"B.	c #AAB6B4",
"C.	c #023A3C",
"D.	c #3A3A3C",
"E.	c #CEA26C",
"F.	c #FECE94",
"G.	c #FEBE7C",
"H.	c #C6620C",
"I.	c #562604",
"J.	c #92A2A4",
"K.	c #865A2C",
"L.	c #FEC27C",
"M.	c #863E04",
"N.	c #823A04",
"O.	c #7A4E24",
"P.	c #EE9A4C",
"Q.	c #DA8E4C",
"R.	c #A24A04",
"S.	c #022624",
"                                                                                        ",
"                                                        . . . . .                       ",
"                                                    . . + + + + + . .                   ",
"                                                  . @ # $ % & * * = - ;                 ",
"                                                . > , ' ) ! ~ { ] ^ / ( _               ",
"                                              . : < < < [ } | , 1 2 & & 3 4             ",
"                                            . : : 5 } 6 } 7 < 8 9 0 / / a b c           ",
"                                          . d 5 5 5 e f g : : d : h i a j a k           ",
"                                        . l m n o p < q d : < : g 8 r a b s c           ",
"                                      . t u u u v w x y z < : A g ' B C D E F           ",
"                                    . G G H I J 6 K L M N f : O O P 9 k D Q R           ",
"                                  . S T H U J 6 V W V X o Y f 7 P Z `  ...+.R           ",
"                                . G T @.U J 6 W #.$.W V %.&.*.7 =.-.. ;.+.>.R ,.        ",
"                              . S T H U J 6 W V W W #.$.V '.E ).!.. . ;.>.. . ~.{.,.    ",
"                            . G G H U J 6 V W #.$.W W #.W ].E ^.. /.` ;.>.. . ~.{.,.{.  ",
"                          . S T @.U J 6 W $.V W W #.$.W #.b & (.-._.! :.<.. . ~.,.{.{.  ",
"                        . G G H U J 6 V V $.V V W W $.W E / [.. Z }._.. . . . ~.,.,.,.  ",
"                      . S T @.U J 6 W V V V $.#.W #.V b / [.( (.|.! 1.. . . ^.2.{.{.{.  ",
"                    . G G H U J 6 V $.W $.W W $.W $.E & [.( s 3.4.-.. . . 3.. ,.,.,.    ",
"                  . S T H U J 6 W 5.V #.V $.#.V V D & [.( s D . . . . . . . ,.{.,.,.    ",
"                . G T H U J 6 V $.W W W V W $.$.b / [.( s D b . . . . 3.. {.,.{.{.      ",
"              . S T H U J 6 V $.V V V V $.$.V D / [.( s D b . . . . 6.. ,.,.{.,.        ",
"            . G G H I J 6 W V $.V V #.W V $.b / [.( s D E > . . . 7.. {.{.,.{.          ",
"          . &.%.$.$.$.$.W V $.V $.W W V $.D / [.( s D b 8.. . . 6.. ,.,.,.{.            ",
"        4 b 9.0.a.J $.V & V $.V $.#.W V b / [.( s D E 8.. . . 6.. {.{.{.,.              ",
"        b.0.a.c.6 c.d.d./ / V $.W W #.b / [.( s D b e.. . . . . ,.,.,.,.                ",
"        b.0.c.f.6 c.d.d.g.h.& #.$.W E / [.i.s E E j.. . . 3.. {.{.{.{.                  ",
"        . d.6 6 f.G d.0.a.k.l.l.W b / [.( s D D m.. . . ^.. ,.,.,.,.                    ",
"      . n.d.6 6 c.o.d.d.d.a.p.q.E & [.( s E b _ . . . 7.. {.{.{.{.                      ",
"      . 0.@.f.f.o.d.d.d.d.d.#.~ D [.( s D D 8.. . . 7.. ,.,.,.,.                        ",
"      . 0.6 f.@.a.d.a.d.d.d.r.s.D i.s D b e.. . 7.7.~.{.{.{.{.                          ",
"      . d.d.a.d.d.d.d.a.d.a.k.t.E s D E k . . . . . {.,.,.,.                            ",
"    . m.u.0.d.d.a.d.d.d.d.5.W t.D E b . . . . . . ,.{.{.{.                              ",
"    -.v.w.` x.y.d.d.9.z.z.V A.s b D _ . . . 6.. ,.{.,.,.                                ",
"    . B.C.. D.E.F.I G.V V t.H.E b I.. . . 7.. ,.,.{.{.                                  ",
"    . J.. . . K.E.L.V V X C M.N.8.. . 7.7.2.,.,.,.,.                                    ",
"  . w.~.. . . . O.P.Q.M R.4 . . . 3.. ,.,.{.{.{.{.                                      ",
"  . S.. . . . . I.N.. . . . . . . {.,.,.{.,.,.,.                                        ",
"  . . . . . . . . . . . . . . ,.,.,.,.,.{.,.                                            ",
"  . . . .   . . . . 3.. . C.C.,.,.,.{.,.C.                                              ",
"            . . . . . ,.,.{.,.,.,.,.,.                                                  ",
"            C.,.,.,.,.,.,.,.{.{.C.                                                      ",
"            ,.C.,.,.,.,.,.,.                                                            ",
"                                                                                        "};
