/* XPM */
static char * mini_kwrite_xpm[] = {
"16 16 58 1",
" 	c none",
".	c #000038E30000",
"X	c #8E3871C66185",
"o	c #CF3C59654103",
"O	c #F7DE71C69E79",
"+	c #BEFB492430C2",
"@	c #BEFBBEFBC71B",
"#	c #E79DE79DF7DE",
"$	c #71C66DB671C6",
"%	c #E79D659538E3",
"&	c #AEBA410328A2",
"*	c #E79DAEBA5965",
"=	c #E79DCB2BAEBA",
"-	c #CF3CCB2BCF3C",
";	c #BEFBBAEABEFB",
":	c #AEBAAAAAB6DA",
">	c #965851444103",
",	c #A69949242081",
"<	c #FFFFFBEE0000",
"1	c #FFFFEBAD0000",
"2	c #EFBE9A694103",
"3	c #D75C71C64924",
"4	c #71C682079658",
"5	c #208130C230C2",
"6	c #FFFFD34C79E7",
"7	c #FFFFA2890000",
"8	c #30C241034924",
"9	c #000000000000",
"0	c #A69928A21861",
"q	c #79E7618528A2",
"w	c #082010401040",
"e	c #28A208200820",
"r	c #104020812081",
"t	c #28A249244924",
"y	c #F7DEAAAA2081",
"u	c #F7DEB2CA4924",
"i	c #F7DE9A690820",
"p	c #BEFB61851861",
"a	c #6185492438E3",
"s	c #186138E330C2",
"d	c #69A659654103",
"f	c #E79DDB6CE79D",
"g	c #DF7DCB2BC71B",
"h	c #D75CAAAA79E7",
"j	c #DF7D8A2828A2",
"k	c #B6DA596528A2",
"l	c #4103492430C2",
"z	c #DF7DC30BAEBA",
"x	c #D75CB2CA8E38",
"c	c #D75C96585144",
"v	c #C71B59651861",
"b	c #CF3C69A630C2",
"n	c #BEFB410328A2",
"m	c #28A228A228A2",
"M	c #514449244924",
"N	c #C71B79E730C2",
"B	c #30C228A22081",
"V	c #514418611040",
"                ",
"        .XoO+   ",
"        @#@$%&  ",
"      .*=-;:>,  ",
"      <123-45,  ",
"     <1677%890  ",
"    <16777qw5ert",
"   *yui77pa5w9st",
"  dfghj7pkl99st ",
"  h#zxcvkbw9st  ",
"  zzxxhnbe9st   ",
" mMXxhN0e9st    ",
" $9BcNVe9rt     ",
" w99e9wrtt      ",
"   rrtttt       ",
"   tt           "};
